<svg width="16" height="17" viewBox="0 0 16 17" fill="none" xmlns="http://www.w3.org/2000/svg">
<g clip-path="url(#clip0_75_3099)">
<path d="M14.6667 7.57717V8.1905C14.6659 9.62812 14.2004 11.027 13.3396 12.1784C12.4788 13.3298 11.2689 14.1722 9.89028 14.5798C8.51166 14.9874 7.03821 14.9384 5.68969 14.4402C4.34116 13.942 3.18981 13.0212 2.40735 11.8152C1.62488 10.6092 1.25323 9.18254 1.34783 7.74804C1.44242 6.31354 1.99818 4.94805 2.93223 3.85522C3.86628 2.76238 5.12856 2.00076 6.53083 1.68393C7.9331 1.36711 9.40022 1.51206 10.7134 2.09717M14.6667 2.85717L8.00004 9.5305L6.00004 7.5305" stroke="#2C9CB5" stroke-width="1.5" stroke-linecap="round" stroke-linejoin="round"/>
</g>
<defs>
<clipPath id="clip0_75_3099">
<rect width="16" height="16" fill="white" transform="translate(0 0.190491)"/>
</clipPath>
</defs>
</svg>
