<svg width="16" height="17" viewBox="0 0 16 17" fill="none" xmlns="http://www.w3.org/2000/svg">
<rect x="0.75" y="1.5755" width="14.5" height="14.5" rx="7.25" stroke="#FFB443" stroke-width="1.5"/>
<g clip-path="url(#clip0_97_1669)">
<path d="M9.62548 4.85948C9.67441 4.88785 9.71228 4.93197 9.7329 4.98465C9.75351 5.03732 9.75566 5.09543 9.73898 5.14948L8.83848 8.07548H10.5C10.5488 8.07546 10.5966 8.08974 10.6374 8.11655C10.6782 8.14337 10.7102 8.18155 10.7296 8.22637C10.749 8.2712 10.7548 8.32071 10.7463 8.3688C10.7378 8.41689 10.7155 8.46145 10.682 8.49698L6.68198 12.747C6.64327 12.7881 6.59177 12.815 6.53586 12.8231C6.47996 12.8312 6.42294 12.8202 6.37411 12.7918C6.32528 12.7634 6.28752 12.7193 6.26697 12.6666C6.24643 12.614 6.24431 12.556 6.26098 12.502L7.16148 9.57548H5.49998C5.45115 9.5755 5.40339 9.56122 5.36258 9.5344C5.32178 9.50759 5.28972 9.46941 5.27036 9.42458C5.251 9.37975 5.2452 9.33024 5.25366 9.28215C5.26212 9.23406 5.28448 9.1895 5.31798 9.15398L9.31798 4.90398C9.35663 4.86288 9.40806 4.83606 9.46389 4.82789C9.51971 4.81972 9.57666 4.83068 9.62548 4.85898V4.85948Z" fill="#FFB443"/>
</g>
<defs>
<clipPath id="clip0_97_1669">
<rect width="8" height="8" fill="white" transform="translate(4 4.8255)"/>
</clipPath>
</defs>
</svg>
