<svg width="32" height="33" viewBox="0 0 32 33" fill="none" xmlns="http://www.w3.org/2000/svg">
<path d="M1.87305 26.4878V8.98565H27.2603V26.4859C27.2603 27.0525 26.801 27.5136 26.2326 27.5136H2.89893C2.33234 27.5155 1.87305 27.0544 1.87305 26.4878Z" fill="#579E89"/>
<path d="M2.9798 4.43977C2.36803 4.43977 1.87109 4.93671 1.87109 5.54848V8.98754H27.2584V5.5466C27.2584 4.93483 26.7633 4.43789 26.1516 4.43789L2.9798 4.43977Z" fill="#BAE8DB"/>
<path d="M4.27295 11.3875H7.63295V14.7475H4.27295V11.3875Z" fill="white"/>
<path d="M10.0142 11.3875H13.3742V14.7475H10.0142V11.3875Z" fill="white"/>
<path d="M15.7571 11.3875H19.1171V14.7475H15.7571V11.3875Z" fill="white"/>
<path d="M21.5002 11.3875H24.8602V14.7475H21.5002V11.3875Z" fill="white"/>
<path d="M4.27295 16.5696H7.63295V19.9296H4.27295V16.5696Z" fill="white"/>
<path d="M10.0142 16.5696H13.3742V19.9296H10.0142V16.5696Z" fill="white"/>
<path d="M15.7571 16.5696H19.1171V19.9296H15.7571V16.5696Z" fill="white"/>
<path d="M21.5002 16.5696H24.8602V19.9296H21.5002V16.5696Z" fill="white"/>
<path d="M4.27295 21.7537H7.63295V25.1137H4.27295V21.7537Z" fill="white"/>
<path d="M10.0142 21.7537H13.3742V25.1137H10.0142V21.7537Z" fill="white"/>
<path d="M15.7571 21.7537H19.1171V25.1137H15.7571V21.7537Z" fill="white"/>
<path d="M21.5002 21.7537H24.8602V25.1137H21.5002V21.7537Z" fill="white"/>
<path d="M6.55432 6.836C5.99903 6.836 5.55103 6.38612 5.55103 5.83271V3.04683C5.55103 2.49153 6.00091 2.04353 6.55432 2.04353C7.10961 2.04353 7.55761 2.49342 7.55761 3.04683V5.83083C7.55761 6.38612 7.10773 6.836 6.55432 6.836Z" fill="#579E89"/>
<path d="M22.5787 6.836C22.0234 6.836 21.5754 6.38612 21.5754 5.83271V3.04683C21.5754 2.49153 22.0253 2.04353 22.5787 2.04353C23.134 2.04353 23.582 2.49342 23.582 3.04683V5.83083C23.582 6.38612 23.1321 6.836 22.5787 6.836Z" fill="#579E89"/>
<path d="M23.5469 30.6562C27.1971 30.6562 30.1562 27.6971 30.1562 24.0469C30.1562 20.3966 27.1971 17.4375 23.5469 17.4375C19.8966 17.4375 16.9375 20.3966 16.9375 24.0469C16.9375 27.6971 19.8966 30.6562 23.5469 30.6562Z" fill="#BAE8DB"/>
<path d="M23.547 29.1171C26.3472 29.1171 28.6172 26.8471 28.6172 24.0469C28.6172 21.2467 26.3472 18.9767 23.547 18.9767C20.7468 18.9767 18.4768 21.2467 18.4768 24.0469C18.4768 26.8471 20.7468 29.1171 23.547 29.1171Z" fill="#579E89"/>
<path fill-rule="evenodd" clip-rule="evenodd" d="M23.9514 24.6775C23.9514 24.9008 23.7703 25.0819 23.547 25.0819C23.377 25.0819 23.2314 24.9769 23.1717 24.8282L21.4724 25.8093C21.2796 25.9209 21.0328 25.8552 20.9211 25.6624C20.8094 25.4696 20.8752 25.2227 21.068 25.1111L23.1427 23.9133V20.4145C23.1427 20.1912 23.3237 20.0101 23.5471 20.0101C23.7704 20.0101 23.9515 20.1912 23.9515 20.4145V23.4801C24.1093 23.4579 24.272 23.5311 24.3568 23.6775C24.4684 23.8703 24.4027 24.1171 24.2099 24.2288L23.9515 24.378V24.6775H23.9514Z" fill="white"/>
</svg>
