<svg width="32" height="33" viewBox="0 0 32 33" fill="none" xmlns="http://www.w3.org/2000/svg">
<path fill-rule="evenodd" clip-rule="evenodd" d="M16.0021 24.7259V27.8572C16.0021 29.5741 14.5973 30.9789 12.8804 30.9789C11.1634 30.9789 9.75854 29.5742 9.75854 27.8572V25.6842L16.0021 24.7259Z" fill="#9DD6C5"/>
<path fill-rule="evenodd" clip-rule="evenodd" d="M14.4668 8.88563L11.2937 8.12238V5.09163C11.2937 4.21906 12.0076 3.50513 12.8802 3.50513C13.7528 3.50513 14.4668 4.21913 14.4668 5.09163V8.88563H14.4668Z" fill="#BAE8DB"/>
<path fill-rule="evenodd" clip-rule="evenodd" d="M2.31537 25.9261C3.15118 25.097 4.11299 23.8442 4.11299 21.7733V16.205C4.11299 2.95931 21.6477 2.95931 21.6477 16.205V21.7733C21.6477 23.8442 22.6096 25.0971 23.4453 25.9261C23.867 26.3444 23.5712 27.0626 22.9772 27.0626H2.78349C2.18949 27.0626 1.89368 26.3444 2.31537 25.9261Z" fill="#579E89"/>
<path fill-rule="evenodd" clip-rule="evenodd" d="M4.11299 21.7909C4.11068 22.6751 3.93274 23.4098 3.66455 24.0256H22.0961C21.8279 23.4097 21.65 22.6751 21.6477 21.7909H4.11299Z" fill="#9DD6C5"/>
<path fill-rule="evenodd" clip-rule="evenodd" d="M2.98765 12.3214C2.91321 12.5868 2.63778 12.7415 2.3724 12.6671C2.10709 12.5926 1.95228 12.3172 2.02671 12.0518C2.30371 11.0707 2.68928 10.1274 3.19509 9.24425C3.67653 8.4035 4.26878 7.61456 4.9819 6.89625C5.26578 6.61031 5.56321 6.34212 5.87259 6.09219C6.18559 5.83931 6.51003 5.60544 6.84421 5.39119C7.07615 5.24238 7.38484 5.30969 7.53365 5.54156C7.68246 5.7735 7.61515 6.08219 7.38328 6.231C7.07671 6.42756 6.7809 6.64063 6.49759 6.8695C6.21621 7.09681 5.94615 7.34025 5.6889 7.59937C5.04284 8.25012 4.50353 8.96975 4.06228 9.74037C3.59659 10.5535 3.24196 11.4206 2.98765 12.3214ZM19.9032 4.67987C19.6767 4.52237 19.6207 4.21106 19.7782 3.98456C19.9356 3.75806 20.247 3.70206 20.4735 3.85956C20.7963 4.08375 21.112 4.32494 21.4193 4.58281C21.7195 4.83456 22.0121 5.10369 22.2961 5.38969C22.9943 6.093 23.5969 6.85588 24.1093 7.6655C24.6415 8.5065 25.0754 9.39587 25.4173 10.3196C25.5122 10.5785 25.3793 10.8653 25.1205 10.9602C24.8616 11.0552 24.5748 10.9222 24.4798 10.6634C24.1608 9.80156 23.7579 8.97487 23.2655 8.19675C22.7922 7.44869 22.235 6.74344 21.589 6.09281C21.3319 5.83387 21.0615 5.58556 20.7787 5.34837C20.4985 5.11331 20.2062 4.89031 19.9032 4.67987ZM18.3774 6.231C18.684 6.42756 18.9798 6.64056 19.2632 6.8695C19.5445 7.09681 19.8145 7.34025 20.0717 7.59931C20.7178 8.25006 21.2572 8.96969 21.6984 9.74025C22.1641 10.5534 22.5187 11.4206 22.773 12.3213C22.8475 12.5867 23.1229 12.7414 23.3883 12.667C23.6536 12.5926 23.8084 12.3171 23.734 12.0518C23.457 11.0707 23.0713 10.1274 22.5656 9.24413C22.0842 8.40338 21.4919 7.61444 20.7787 6.89612C20.4949 6.61025 20.1975 6.34206 19.8881 6.09212C19.5751 5.83925 19.2507 5.60538 18.9164 5.39113C18.6845 5.24231 18.3758 5.30962 18.227 5.5415C18.0781 5.7735 18.1455 6.08219 18.3774 6.231ZM1.28084 10.6634C1.59984 9.80156 2.00271 8.97487 2.49509 8.19681C2.96846 7.44875 3.52559 6.7435 4.17159 6.09288C4.42865 5.83394 4.69921 5.58562 4.98196 5.34844C5.26221 5.11337 5.55446 4.89037 5.85753 4.67987C6.08403 4.52237 6.14003 4.21106 5.98253 3.98456C5.82503 3.75806 5.51371 3.70206 5.28721 3.85956C4.9644 4.08375 4.64871 4.325 4.34134 4.58281C4.04121 4.83462 3.74859 5.10369 3.46459 5.38975C2.76634 6.093 2.16378 6.85588 1.6514 7.66556C1.11921 8.5065 0.685276 9.39594 0.343401 10.3196C0.248464 10.5785 0.381401 10.8653 0.640276 10.9602C0.899089 11.0551 1.1859 10.9222 1.28084 10.6634Z" fill="#579E89"/>
<path d="M23.5154 18.3644C28.0285 18.3644 31.6871 14.7058 31.6871 10.1927C31.6871 5.67959 28.0285 2.021 23.5154 2.021C19.0023 2.021 15.3438 5.67959 15.3438 10.1927C15.3438 14.7058 19.0023 18.3644 23.5154 18.3644Z" fill="#BAE8DB"/>
<path d="M23.5155 16.4614C26.9776 16.4614 29.7842 13.6548 29.7842 10.1927C29.7842 6.73059 26.9776 3.924 23.5155 3.924C20.0534 3.924 17.2468 6.73059 17.2468 10.1927C17.2468 13.6548 20.0534 16.4614 23.5155 16.4614Z" fill="#579E89"/>
<path fill-rule="evenodd" clip-rule="evenodd" d="M24.0155 10.9724C24.0155 11.2485 23.7917 11.4724 23.5155 11.4724C23.3053 11.4724 23.1253 11.3426 23.0515 11.1587L20.9505 12.3717C20.7122 12.5097 20.407 12.4284 20.2689 12.1901C20.1308 11.9517 20.2122 11.6465 20.4505 11.5084L23.0156 10.0275V5.70175C23.0156 5.42562 23.2395 5.20175 23.5156 5.20175C23.7917 5.20175 24.0156 5.42562 24.0156 5.70175V9.49194C24.2107 9.46456 24.4119 9.555 24.5167 9.736C24.6548 9.97437 24.5735 10.2796 24.3351 10.4176L24.0156 10.6021V10.9724H24.0155Z" fill="white"/>
</svg>
