<svg width="32" height="33" viewBox="0 0 32 33" fill="none" xmlns="http://www.w3.org/2000/svg">
<g clip-path="url(#clip0_65_7253)">
<path d="M23.4214 15.5C22.9032 15.5 22.4839 15.0807 22.4839 14.5625C22.4839 14.0443 22.9032 13.625 23.4214 13.625C25.2653 13.625 26.9096 12.4541 27.5119 10.7118L29.3521 5.39625C29.4181 5.16006 29.3631 4.85975 29.1837 4.62262C29.0061 4.3855 28.7314 4.25 28.4348 4.25H25.2964C24.7782 4.25 24.3589 3.83069 24.3589 3.3125C24.3589 2.79431 24.7782 2.375 25.2964 2.375H28.4348C29.3266 2.375 30.145 2.78244 30.6815 3.49375C31.218 4.20506 31.3846 5.10419 31.1393 5.96019L29.2844 11.3252C28.4201 13.8218 26.0636 15.5 23.4214 15.5Z" fill="#579E89"/>
<path d="M8.57375 15.5C5.93156 15.5 3.575 13.8218 2.71068 11.3252L0.870496 6.00962C0.610496 5.10419 0.777121 4.20513 1.31362 3.49375C1.85012 2.78238 2.66862 2.375 3.56031 2.375H6.69875C7.21693 2.375 7.63625 2.79431 7.63625 3.3125C7.63625 3.83069 7.21693 4.25 6.69875 4.25H3.56031C3.26368 4.25 2.989 4.3855 2.81143 4.62262C2.632 4.85975 2.57706 5.16006 2.65762 5.44569L4.48318 10.7118C5.08556 12.4541 6.72987 13.625 8.57375 13.625C9.09193 13.625 9.51125 14.0443 9.51125 14.5625C9.51125 15.0807 9.09193 15.5 8.57375 15.5Z" fill="#579E89"/>
<path d="M20.4063 27.1562C19.3939 26.1249 18.8126 24.6562 18.8126 23.2312V19.9437C18.8126 19.3249 18.2312 18.875 17.6314 19.0438C17.125 19.1749 16.5627 19.2501 16.0001 19.2501C15.4375 19.2501 14.8752 19.175 14.3689 19.0438C13.769 18.875 13.1876 19.3249 13.1876 19.9437V23.2312C13.1876 24.6562 12.6062 26.1249 11.5939 27.1562C10.994 27.7374 11.4064 28.75 12.2501 28.75H19.7501C20.5938 28.75 21.0062 27.7374 20.4063 27.1562Z" fill="#579E89"/>
<path d="M25.375 0.5H6.62496C6.04359 0.5 5.6124 1.00631 5.70621 1.56875L7.54371 13.8313C8.18134 18.0875 11.8188 21.125 16 21.125C20.2187 21.125 23.8186 18.05 24.4562 13.8313L26.2937 1.56875C26.3875 1.00631 25.9563 0.5 25.375 0.5Z" fill="#579E89"/>
<path d="M20.4062 27.1562C21.0061 27.7374 20.5937 28.75 19.75 28.75H16V19.25C16.5626 19.25 17.1249 19.1749 17.6313 19.0438C18.2311 18.875 18.8125 19.3249 18.8125 19.9438V23.2312C18.8125 24.6562 19.3939 26.1249 20.4062 27.1562Z" fill="#579E89"/>
<path d="M21.1374 7.96244L18.2686 7.53126L16.975 4.94376C16.8061 4.56876 16.3749 4.40007 15.9999 4.47501C15.7001 4.51257 15.4374 4.66244 15.3062 4.94376L14.0123 7.53126L11.1435 7.96244C10.3749 8.07494 10.0751 9.01244 10.6187 9.55613L12.6999 11.5812L12.2124 14.4313C12.0811 15.1999 12.8876 15.7812 13.5811 15.4249L15.9999 14.1499L16.1501 14.075L18.6998 15.4249C19.3938 15.7812 20.1999 15.1999 20.0685 14.4313L19.581 11.5812L21.6624 9.55613C22.2063 9.01244 21.9063 8.07494 21.1374 7.96244Z" fill="white"/>
<path d="M26.2938 1.56875L24.4562 13.8313C23.8186 18.05 20.2188 21.125 16 21.125V0.5H25.375C25.9564 0.5 26.3876 1.00631 26.2938 1.56875Z" fill="#579E89"/>
<path d="M21.6626 9.55619L19.5811 11.5813L20.0686 14.4313C20.2 15.2 19.3939 15.7813 18.6999 15.425L16.1501 14.075L16 14.1499V4.47501C16.3749 4.40007 16.8061 4.56876 16.9751 4.94376L18.2687 7.53126L21.1375 7.96244C21.9063 8.07494 22.2064 9.01244 21.6626 9.55619Z" fill="white"/>
<path d="M19.75 26.875H12.25C10.6936 26.875 9.4375 28.1312 9.4375 29.6875V31.5625C9.4375 32.0874 9.84994 32.5 10.375 32.5H21.625C22.1501 32.5 22.5625 32.0874 22.5625 31.5625V29.6875C22.5625 28.1312 21.3064 26.875 19.75 26.875Z" fill="#BAE8DB"/>
<path d="M22.5625 29.6875V31.5625C22.5625 32.0874 22.1501 32.5 21.625 32.5H16V26.875H19.75C21.3064 26.875 22.5625 28.1312 22.5625 29.6875Z" fill="#BAE8DB"/>
</g>
<defs>
<clipPath id="clip0_65_7253">
<rect width="32" height="32" fill="white" transform="translate(0 0.5)"/>
</clipPath>
</defs>
</svg>
