<svg width="25" height="22" viewBox="0 0 25 22" fill="none" xmlns="http://www.w3.org/2000/svg">
<path fill-rule="evenodd" clip-rule="evenodd" d="M15.2374 5.27157C15.2374 4.88295 15.5525 4.5679 15.9411 4.5679H23.5056C23.8942 4.5679 24.2092 4.88295 24.2092 5.27157C24.2092 5.6602 23.8942 5.97525 23.5056 5.97525H15.9411C15.5525 5.97525 15.2374 5.6602 15.2374 5.27157Z" fill="#FC5656"/>
<path fill-rule="evenodd" clip-rule="evenodd" d="M14.8856 14.0675C14.8856 13.6788 15.2007 13.3638 15.5893 13.3638H23.1538C23.5424 13.3638 23.8574 13.6788 23.8574 14.0675C23.8574 14.4561 23.5424 14.7711 23.1538 14.7711H15.5893C15.2007 14.7711 14.8856 14.4561 14.8856 14.0675Z" fill="#FC5656"/>
<path fill-rule="evenodd" clip-rule="evenodd" d="M14.8856 17.7617C14.8856 17.3731 15.2007 17.0581 15.5893 17.0581H23.1538C23.5424 17.0581 23.8574 17.3731 23.8574 17.7617C23.8574 18.1504 23.5424 18.4654 23.1538 18.4654H15.5893C15.2007 18.4654 14.8856 18.1504 14.8856 17.7617Z" fill="#FC5656"/>
<path fill-rule="evenodd" clip-rule="evenodd" d="M2.08398 5.27157C2.08398 4.88295 2.39903 4.5679 2.78766 4.5679H10.3521C10.7408 4.5679 11.0558 4.88295 11.0558 5.27157C11.0558 5.6602 10.7408 5.97525 10.3521 5.97525H2.78766C2.39903 5.97525 2.08398 5.6602 2.08398 5.27157Z" fill="#FC5656"/>
<path fill-rule="evenodd" clip-rule="evenodd" d="M6.6579 9.66946C6.26927 9.66946 5.95422 9.35442 5.95422 8.96579L5.95422 1.40131C5.95422 1.01269 6.26927 0.697642 6.6579 0.697642C7.04652 0.697642 7.36157 1.01269 7.36157 1.40131V8.96579C7.36157 9.35442 7.04652 9.66946 6.6579 9.66946Z" fill="#FC5656"/>
<path fill-rule="evenodd" clip-rule="evenodd" d="M3.3192 12.4363C3.594 12.1615 4.03954 12.1615 4.31434 12.4363L9.66324 17.7852C9.93804 18.06 9.93804 18.5055 9.66324 18.7803C9.38844 19.0551 8.9429 19.0551 8.66809 18.7803L3.3192 13.4315C3.0444 13.1566 3.0444 12.7111 3.3192 12.4363Z" fill="#FC5656"/>
<path fill-rule="evenodd" clip-rule="evenodd" d="M3.44349 18.7804C3.16869 18.5056 3.16869 18.06 3.44349 17.7852L8.79239 12.4363C9.06719 12.1615 9.51273 12.1615 9.78753 12.4363C10.0623 12.7111 10.0623 13.1567 9.78753 13.4315L4.43864 18.7804C4.16384 19.0552 3.7183 19.0552 3.44349 18.7804Z" fill="#FC5656"/>
</svg>
